 <svg version="1.1" xmlns="http://www.w3.org/2000/svg" xmlns:xlink="http://www.w3.org/1999/xlink" width="1000" height="1000"><defs/><g><path fill="none" stroke="black" paint-order="fill stroke markers" d=" M 950 500 A 450 450 0 1 1 949.9997750000188 499.55000007499973" stroke-miterlimit="10" stroke-width="23.75" stroke-dasharray=""/><path fill="none" stroke="black" paint-order="fill stroke markers" d=" M 820.3188641867071 664.3040633890043 A 360 360 0 1 1 244.75357720754226 246.13140475503099" stroke-miterlimit="10" stroke-width="23.75" stroke-dasharray=""/><path fill="none" stroke="black" paint-order="fill stroke markers" d=" M 337.43210060585784 178.7965160734148 A 360 360 0 0 1 820.3188641867071 335.69593661099566" stroke-miterlimit="10" stroke-width="23.75" stroke-dasharray=""/><path fill="none" stroke="black" paint-order="fill stroke markers" d=" M 855.7189100977112 444.6460751265411 A 360 360 0 0 1 855.7189100977112 555.3539248734589" stroke-miterlimit="10" stroke-width="23.75" stroke-dasharray=""/><path fill="none" stroke="black" paint-order="fill stroke markers" d=" M 513.5 860 A 13.5 13.5 0 1 1 513.4999932500006 859.98650000225" stroke-miterlimit="10" stroke-width="23.75" stroke-dasharray=""/><path fill="none" stroke="black" paint-order="fill stroke markers" d=" M 730.9233609400344 743.5141153068591 A 54 54 0 1 1 730.9233339400366 743.4601153158591" stroke-miterlimit="10" stroke-width="23.75" stroke-dasharray=""/><path fill="none" stroke="black" paint-order="fill stroke markers" d=" M 820.3188641867068 664.3040633890046 A 70.2 70.2 0 0 1 855.718910097711 555.3539248734587" stroke-miterlimit="10" stroke-width="23.75" stroke-dasharray=""/><path fill="none" stroke="black" paint-order="fill stroke markers" d=" M 873.5 500 A 13.5 13.5 0 1 1 873.4999932500006 499.98650000225" stroke-miterlimit="10" stroke-width="23.75" stroke-dasharray=""/><path fill="none" stroke="black" paint-order="fill stroke markers" d=" M 855.718910097711 444.64607512654135 A 70.2 70.2 0 0 1 820.3188641867068 335.6959366109955" stroke-miterlimit="10" stroke-width="23.75" stroke-dasharray=""/><path fill="none" stroke="black" paint-order="fill stroke markers" d=" M 804.7461179749811 288.3973091747097 A 13.5 13.5 0 1 1 804.7461112249816 288.3838091769597" stroke-miterlimit="10" stroke-width="23.75" stroke-dasharray=""/><path fill="none" stroke="black" paint-order="fill stroke markers" d=" M 714.2286636578796 223.72069642095545 A 13.5 13.5 0 1 1 714.2286569078801 223.70719642320543" stroke-miterlimit="10" stroke-width="23.75" stroke-dasharray=""/><path fill="none" stroke="black" paint-order="fill stroke markers" d=" M 554 199 A 54 54 0 1 1 553.9999730000022 198.94600000899996" stroke-miterlimit="10" stroke-width="23.75" stroke-dasharray=""/><path fill="none" stroke="black" paint-order="fill stroke markers" d=" M 337.432100605858 178.79651607341475 A 70.2 70.2 0 0 1 244.7535772075422 246.1314047550311" stroke-miterlimit="10" stroke-width="23.75" stroke-dasharray=""/><path fill="none" stroke="black" paint-order="fill stroke markers" d=" M 297.12490463486523 247.88963863943763 A 13.5 13.5 0 1 1 297.1248978848658 247.87613864168762" stroke-miterlimit="10" stroke-width="23.75" stroke-dasharray=""/><path fill="none" stroke="black" paint-order="fill stroke markers" d=" M 267.7319885951588 406.9858846931408 A 54 54 0 1 1 267.731961595161 406.9318847021408" stroke-miterlimit="10" stroke-width="23.75" stroke-dasharray=""/><path fill="#000000" stroke="none" paint-order="stroke fill markers" d=" M 232.9960711263711 399.85310265986607 A 14.875 14.875 0 1 1 232.99606368887171 399.8382276623452"/><path fill="#000000" stroke="none" paint-order="stroke fill markers" d=" M 236.5720869191307 409.57390202103096 A 14.875 14.875 0 1 1 236.5720794816313 409.5590270235101"/><path fill="none" stroke="black" paint-order="fill stroke markers" d=" M 268.29391073756045 442.0560793029707 A 13.5 13.5 0 1 1 268.293903987561 442.0425793052207" stroke-miterlimit="10" stroke-width="23.75" stroke-dasharray=""/><path fill="none" stroke="black" paint-order="fill stroke markers" d=" M 188.71419968520507 605.5293035790446 A 13.5 13.5 0 1 1 188.71419293520563 605.5158035812946" stroke-miterlimit="10" stroke-width="23.75" stroke-dasharray=""/><path fill="none" stroke="black" paint-order="fill stroke markers" d=" M 377.0766390599656 743.5141153068591 A 54 54 0 1 1 377.07661205996783 743.4601153158591" stroke-miterlimit="10" stroke-width="23.75" stroke-dasharray=""/><path fill="#000000" stroke="none" paint-order="stroke fill markers" d=" M 332.5242613197655 737.1356988995383 A 14.875 14.875 0 1 1 332.5242538822661 737.1208239020175"/><path fill="#000000" stroke="none" paint-order="stroke fill markers" d=" M 342.87434054791504 736.738597978969 A 14.875 14.875 0 1 1 342.87433311041565 736.7237229814482"/><path fill="#000000" stroke="none" paint-order="stroke fill markers" d=" M 345.6950255044062 746.7048192060096 A 14.875 14.875 0 1 1 345.6950180669068 746.6899442084888"/><path fill="none" stroke="black" paint-order="fill stroke markers" d=" M 694.7019193587803 692.5246765910698 L 789.1391265669383 301.7318728048565" stroke-miterlimit="10" stroke-width="23.75" stroke-dasharray=""/><path fill="none" stroke="black" paint-order="fill stroke markers" d=" M 828.316303122984 571.4300846487996 L 534.5903208033558 240.466971274991" stroke-miterlimit="10" stroke-width="23.75" stroke-dasharray=""/><path fill="none" stroke="black" paint-order="fill stroke markers" d=" M 858.8000760414782 486.5534323155028 L 851.9573108494743 443.3550006990488" stroke-miterlimit="10" stroke-width="23.75" stroke-dasharray=""/><path fill="none" stroke="black" paint-order="fill stroke markers" d=" M 807.7821497295621 363.85925425781204 L 331.02053288688705 208.9500145377807" stroke-miterlimit="10" stroke-width="23.75" stroke-dasharray=""/><path fill="none" stroke="black" paint-order="fill stroke markers" d=" M 813.5685226905443 346.7625335009224 L 336.3884591491231 191.71733220664478" stroke-miterlimit="10" stroke-width="23.75" stroke-dasharray=""/><path fill="none" stroke="black" paint-order="fill stroke markers" d=" M 298.65290770095794 242.407317842812 L 641.3534117147121 927.22267378571" stroke-miterlimit="10" stroke-width="23.75" stroke-dasharray=""/></g></svg>