 <svg version="1.1" xmlns="http://www.w3.org/2000/svg" xmlns:xlink="http://www.w3.org/1999/xlink" width="1000" height="1000"><defs/><g><path fill="none" stroke="black" paint-order="fill stroke markers" d=" M 950 500 A 450 450 0 1 1 949.9997750000188 499.55000007499973" stroke-miterlimit="10" stroke-width="18.25" stroke-dasharray=""/><path fill="none" stroke="black" paint-order="fill stroke markers" d=" M 789.3639378197198 285.83064764195285 A 360 360 0 1 1 206.89446750361742 709.0194890913573" stroke-miterlimit="10" stroke-width="18.25" stroke-dasharray=""/><path fill="none" stroke="black" paint-order="fill stroke markers" d=" M 140.01406993550086 503.182790536229 A 360 360 0 0 1 614.2687838052846 158.61657180281713" stroke-miterlimit="10" stroke-width="18.25" stroke-dasharray=""/><path fill="none" stroke="black" paint-order="fill stroke markers" d=" M 523.1428571428571 860 A 23.142857142857142 23.142857142857142 0 1 1 523.1428455714296 859.9768571467142" stroke-miterlimit="10" stroke-width="18.25" stroke-dasharray=""/><path fill="none" stroke="black" paint-order="fill stroke markers" d=" M 842.1558314905996 581.0948883809683 A 92.57142857142857 92.57142857142857 0 1 1 842.1557852048892 581.0023169678254" stroke-miterlimit="10" stroke-width="18.25" stroke-dasharray=""/><path fill="#000000" stroke="none" paint-order="stroke fill markers" d=" M 712.3394981424063 605.7780451761191 A 12.125 12.125 0 1 1 712.3394920799069 605.7659201781399"/><path fill="#000000" stroke="none" paint-order="stroke fill markers" d=" M 709.2144798500939 564.038253923594 A 12.125 12.125 0 1 1 709.2144737875944 564.0261289256148"/><path fill="#000000" stroke="none" paint-order="stroke fill markers" d=" M 736.2767064883078 532.1068931240038 A 12.125 12.125 0 1 1 736.2767004258083 532.0947681260246"/><path fill="none" stroke="black" paint-order="fill stroke markers" d=" M 702.3353935321967 520.974554764117 A 23.142857142857142 23.142857142857142 0 1 1 702.3353819607692 520.9514119108312" stroke-miterlimit="10" stroke-width="18.25" stroke-dasharray=""/><path fill="none" stroke="black" paint-order="fill stroke markers" d=" M 789.3639378197199 285.83064764195296 A 120.34285714285714 120.34285714285714 0 0 1 614.2687838052844 158.61657180281705" stroke-miterlimit="10" stroke-width="18.25" stroke-dasharray=""/><path fill="none" stroke="black" paint-order="fill stroke markers" d=" M 523.1428571428571 140 A 23.142857142857142 23.142857142857142 0 1 1 523.1428455714296 139.97685714671428" stroke-miterlimit="10" stroke-width="18.25" stroke-dasharray=""/><path fill="none" stroke="black" paint-order="fill stroke markers" d=" M 311.54016631756684 208.75388202501892 A 23.142857142857142 23.142857142857142 0 1 1 311.5401547461392 208.7307391717332" stroke-miterlimit="10" stroke-width="18.25" stroke-dasharray=""/><path fill="none" stroke="black" paint-order="fill stroke markers" d=" M 140.01406993550086 503.1827905362287 A 120.34285714285714 120.34285714285714 0 0 1 206.89446750361765 709.0194890913574" stroke-miterlimit="10" stroke-width="18.25" stroke-dasharray=""/><path fill="none" stroke="black" paint-order="fill stroke markers" d=" M 311.54016631756684 791.2461179749811 A 23.142857142857142 23.142857142857142 0 1 1 311.5401547461392 791.2229751216953" stroke-miterlimit="10" stroke-width="18.25" stroke-dasharray=""/><path fill="none" stroke="black" paint-order="fill stroke markers" d=" M 507.41558831521485 838.0773886894389 L 693.416118626953 293.3580236126011" stroke-miterlimit="10" stroke-width="18.25" stroke-dasharray=""/><path fill="none" stroke="black" paint-order="fill stroke markers" d=" M 243.31297641724137 632.3142153081209 L 909.0711593749279 687.5120971234984" stroke-miterlimit="10" stroke-width="18.25" stroke-dasharray=""/><path fill="none" stroke="black" paint-order="fill stroke markers" d=" M 237.46713521215938 584.0706203633929 L 925.3596190379242 353.13545529328064" stroke-miterlimit="10" stroke-width="18.25" stroke-dasharray=""/><path fill="none" stroke="black" paint-order="fill stroke markers" d=" M 185.49683503300434 519.2974390010666 L 467.606741791877 51.16742896413825" stroke-miterlimit="10" stroke-width="18.25" stroke-dasharray=""/></g></svg>