 <svg version="1.1" xmlns="http://www.w3.org/2000/svg" xmlns:xlink="http://www.w3.org/1999/xlink" width="1000" height="1000"><defs/><g><path fill="none" stroke="black" paint-order="fill stroke markers" d=" M 950 500 A 450 450 0 1 1 949.9997750000188 499.55000007499973" stroke-miterlimit="10" stroke-width="32.75" stroke-dasharray=""/><path fill="none" stroke="black" paint-order="fill stroke markers" d=" M 789.3639378197198 285.83064764195285 A 360 360 0 1 1 206.89446750361742 709.0194890913573" stroke-miterlimit="10" stroke-width="32.75" stroke-dasharray=""/><path fill="none" stroke="black" paint-order="fill stroke markers" d=" M 140.01406993550086 503.182790536229 A 360 360 0 0 1 614.2687838052846 158.61657180281713" stroke-miterlimit="10" stroke-width="32.75" stroke-dasharray=""/><path fill="none" stroke="black" paint-order="fill stroke markers" d=" M 523.1428571428571 860 A 23.142857142857142 23.142857142857142 0 1 1 523.1428455714296 859.9768571467142" stroke-miterlimit="10" stroke-width="32.75" stroke-dasharray=""/><path fill="none" stroke="black" paint-order="fill stroke markers" d=" M 842.1558314905996 581.0948883809683 A 92.57142857142857 92.57142857142857 0 1 1 842.1557852048892 581.0023169678254" stroke-miterlimit="10" stroke-width="32.75" stroke-dasharray=""/><path fill="#000000" stroke="none" paint-order="stroke fill markers" d=" M 739.043572557838 596.0517155169495 A 19.375 19.375 0 1 1 739.0435628703389 596.0323405201786"/><path fill="#000000" stroke="none" paint-order="stroke fill markers" d=" M 737.1499590795135 570.759373551249 A 19.375 19.375 0 1 1 737.1499493920143 570.7399985544782"/><path fill="#000000" stroke="none" paint-order="stroke fill markers" d=" M 753.5483901676321 551.4104771495563 A 19.375 19.375 0 1 1 753.5483804801329 551.3911021527855"/><path fill="none" stroke="black" paint-order="fill stroke markers" d=" M 702.3353935321967 520.974554764117 A 23.142857142857142 23.142857142857142 0 1 1 702.3353819607692 520.9514119108312" stroke-miterlimit="10" stroke-width="32.75" stroke-dasharray=""/><path fill="none" stroke="black" paint-order="fill stroke markers" d=" M 789.3639378197199 285.83064764195296 A 120.34285714285714 120.34285714285714 0 0 1 614.2687838052844 158.61657180281705" stroke-miterlimit="10" stroke-width="32.75" stroke-dasharray=""/><path fill="none" stroke="black" paint-order="fill stroke markers" d=" M 523.1428571428571 140 A 23.142857142857142 23.142857142857142 0 1 1 523.1428455714296 139.97685714671428" stroke-miterlimit="10" stroke-width="32.75" stroke-dasharray=""/><path fill="none" stroke="black" paint-order="fill stroke markers" d=" M 311.54016631756684 208.75388202501892 A 23.142857142857142 23.142857142857142 0 1 1 311.5401547461392 208.7307391717332" stroke-miterlimit="10" stroke-width="32.75" stroke-dasharray=""/><path fill="none" stroke="black" paint-order="fill stroke markers" d=" M 140.01406993550086 503.1827905362287 A 120.34285714285714 120.34285714285714 0 0 1 206.89446750361765 709.0194890913574" stroke-miterlimit="10" stroke-width="32.75" stroke-dasharray=""/><path fill="none" stroke="black" paint-order="fill stroke markers" d=" M 311.54016631756684 791.2461179749811 A 23.142857142857142 23.142857142857142 0 1 1 311.5401547461392 791.2229751216953" stroke-miterlimit="10" stroke-width="32.75" stroke-dasharray=""/><path fill="none" stroke="black" paint-order="fill stroke markers" d=" M 478.5826525149215 851.2313590883139 L 212.48261372867455 703.262114364193" stroke-miterlimit="10" stroke-width="32.75" stroke-dasharray=""/><path fill="none" stroke="black" paint-order="fill stroke markers" d=" M 637.7584075295556 253.49765516121101 L 222.99264961437245 554.8426174469678" stroke-miterlimit="10" stroke-width="32.75" stroke-dasharray=""/><path fill="none" stroke="black" paint-order="fill stroke markers" d=" M 236.1940728282434 664.2724439378959 L 767.7223996910666 861.6969957072588" stroke-miterlimit="10" stroke-width="32.75" stroke-dasharray=""/></g></svg>